<svg width="30" height="29" viewBox="0 0 30 29" fill="none" xmlns="http://www.w3.org/2000/svg">
<path d="M10.7655 4.98692C9.38742 4.98692 8.26953 3.86608 8.26953 2.49346C8.26953 1.11678 9.39148 0 10.7655 0C12.1395 0 13.2614 1.12084 13.2614 2.49346C13.2614 3.86608 12.1435 4.98692 10.7655 4.98692ZM10.7655 0.625395C9.73701 0.625395 8.89961 1.46196 8.89961 2.4894C8.89961 3.51683 9.73701 4.3534 10.7655 4.3534C11.7939 4.3534 12.6313 3.51683 12.6313 2.4894C12.6354 1.46196 11.7939 0.625395 10.7655 0.625395Z" fill="black"/>
<path d="M4.54672 9.34825C3.16867 9.34825 2.05078 8.22741 2.05078 6.85479C2.05078 5.48217 3.17273 4.36133 4.54672 4.36133C5.92476 4.36133 7.04265 5.48217 7.04265 6.85479C7.04265 8.22741 5.9207 9.34825 4.54672 9.34825ZM4.54672 4.98672C3.51826 4.98672 2.68086 5.82329 2.68086 6.85073C2.68086 7.87816 3.51826 8.71473 4.54672 8.71473C5.57517 8.71473 6.41257 7.87816 6.41257 6.85073C6.41257 5.82329 5.57517 4.98672 4.54672 4.98672Z" fill="black"/>
<path d="M2.49593 16.6139C1.11789 16.6139 0 15.493 0 14.1204C0 12.7437 1.12195 11.627 2.49593 11.627C3.86992 11.627 4.99187 12.7478 4.99187 14.1204C4.99593 15.4971 3.87398 16.6139 2.49593 16.6139ZM2.49593 12.2564C1.46748 12.2564 0.630081 13.093 0.630081 14.1204C0.630081 15.1478 1.46748 15.9844 2.49593 15.9844C3.52439 15.9844 4.36179 15.1478 4.36179 14.1204C4.36585 13.093 3.52845 12.2564 2.49593 12.2564Z" fill="black"/>
<path d="M4.54672 23.8834C3.16867 23.8834 2.05078 22.7626 2.05078 21.3899C2.05078 20.0133 3.17273 18.8965 4.54672 18.8965C5.92476 18.8965 7.04265 20.0173 7.04265 21.3899C7.04265 22.7626 5.9207 23.8834 4.54672 23.8834ZM4.54672 19.5219C3.51826 19.5219 2.68086 20.3584 2.68086 21.3859C2.68086 22.4133 3.51826 23.2499 4.54672 23.2499C5.57517 23.2499 6.41257 22.4133 6.41257 21.3859C6.41257 20.3584 5.57517 19.5219 4.54672 19.5219Z" fill="black"/>
<path d="M10.7655 28.5045C9.38742 28.5045 8.26953 27.3837 8.26953 26.011C8.26953 24.6344 9.39148 23.5176 10.7655 23.5176C12.1395 23.5176 13.2614 24.6384 13.2614 26.011C13.2614 27.3837 12.1435 28.5045 10.7655 28.5045ZM10.7655 24.143C9.73701 24.143 8.89961 24.9795 8.89961 26.007C8.89961 27.0344 9.73701 27.871 10.7655 27.871C11.7939 27.871 12.6313 27.0344 12.6313 26.007C12.6354 24.9795 11.7939 24.143 10.7655 24.143Z" fill="black"/>
<path d="M18.5077 4.98692C17.1296 4.98692 16.0117 3.86608 16.0117 2.49346C16.0117 1.11678 17.1337 0 18.5077 0C19.8857 0 21.0036 1.12084 21.0036 2.49346C21.0036 3.86608 19.8816 4.98692 18.5077 4.98692ZM18.5077 0.625395C17.4792 0.625395 16.6418 1.46196 16.6418 2.4894C16.6418 3.51683 17.4792 4.3534 18.5077 4.3534C19.5361 4.3534 20.3735 3.51683 20.3735 2.4894C20.3735 1.46196 19.5361 0.625395 18.5077 0.625395Z" fill="black"/>
<path d="M24.7264 9.34825C23.3484 9.34825 22.2305 8.22741 22.2305 6.85479C22.2305 5.48217 23.3524 4.36133 24.7264 4.36133C26.1004 4.36133 27.2223 5.48217 27.2223 6.85479C27.2223 8.22741 26.1045 9.34825 24.7264 9.34825ZM24.7264 4.98672C23.6979 4.98672 22.8605 5.82329 22.8605 6.85073C22.8605 7.87816 23.6979 8.71473 24.7264 8.71473C25.7549 8.71473 26.5923 7.87816 26.5923 6.85073C26.5923 5.82329 25.7549 4.98672 24.7264 4.98672Z" fill="black"/>
<path d="M26.7694 16.6139C25.3913 16.6139 24.2734 15.493 24.2734 14.1204C24.2734 12.7437 25.3954 11.627 26.7694 11.627C28.1474 11.627 29.2653 12.7478 29.2653 14.1204C29.2653 15.4971 28.1474 16.6139 26.7694 16.6139ZM26.7694 12.2564C25.7409 12.2564 24.9035 13.093 24.9035 14.1204C24.9035 15.1478 25.7409 15.9844 26.7694 15.9844C27.7978 15.9844 28.6352 15.1478 28.6352 14.1204C28.6393 13.093 27.8019 12.2564 26.7694 12.2564Z" fill="black"/>
<path d="M24.7264 23.8834C23.3484 23.8834 22.2305 22.7626 22.2305 21.3899C22.2305 20.0133 23.3524 18.8965 24.7264 18.8965C26.1004 18.8965 27.2223 20.0173 27.2223 21.3899C27.2223 22.7626 26.1045 23.8834 24.7264 23.8834ZM24.7264 19.5219C23.6979 19.5219 22.8605 20.3584 22.8605 21.3859C22.8605 22.4133 23.6979 23.2499 24.7264 23.2499C25.7549 23.2499 26.5923 22.4133 26.5923 21.3859C26.5923 20.3584 25.7549 19.5219 24.7264 19.5219Z" fill="black"/>
<path d="M18.5077 28.5055C17.1296 28.5055 16.0117 27.3846 16.0117 26.012C16.0117 24.6353 17.1337 23.5186 18.5077 23.5186C19.8857 23.5186 21.0036 24.6394 21.0036 26.012C21.0036 27.3846 19.8816 28.5055 18.5077 28.5055ZM18.5077 24.1439C17.4792 24.1439 16.6418 24.9805 16.6418 26.008C16.6418 27.0354 17.4792 27.872 18.5077 27.872C19.5361 27.872 20.3735 27.0354 20.3735 26.008C20.3735 24.9805 19.5361 24.1439 18.5077 24.1439Z" fill="black"/>
<path d="M14.6369 7.928C13.8076 7.928 13.1328 7.25387 13.1328 6.42542C13.1328 5.59698 13.8076 4.92285 14.6369 4.92285C15.4661 4.92285 16.1409 5.59698 16.1409 6.42542C16.1409 7.25387 15.4661 7.928 14.6369 7.928ZM14.6369 5.54825C14.1531 5.54825 13.7629 5.94216 13.7629 6.42136C13.7629 6.90056 14.1572 7.29448 14.6369 7.29448C15.1166 7.29448 15.5109 6.90056 15.5109 6.42136C15.5109 5.94216 15.1206 5.54825 14.6369 5.54825Z" fill="black"/>
<path d="M14.6369 23.4202C13.8076 23.4202 13.1328 22.7461 13.1328 21.9176C13.1328 21.0892 13.8076 20.415 14.6369 20.415C15.4661 20.415 16.1409 21.0892 16.1409 21.9176C16.1409 22.7461 15.4661 23.4202 14.6369 23.4202ZM14.6369 21.0404C14.1531 21.0404 13.7629 21.4344 13.7629 21.9136C13.7629 22.3928 14.1572 22.7867 14.6369 22.7867C15.1166 22.7867 15.5109 22.3928 15.5109 21.9136C15.5109 21.4344 15.1206 21.0404 14.6369 21.0404Z" fill="black"/>
<path d="M10.1173 9.54714C9.28808 9.54714 8.61328 8.87301 8.61328 8.04456C8.61328 7.21612 9.28808 6.54199 10.1173 6.54199C10.9466 6.54199 11.6214 7.21612 11.6214 8.04456C11.6214 8.87301 10.9466 9.54714 10.1173 9.54714ZM10.1173 7.16739C9.63361 7.16739 9.24336 7.56131 9.24336 8.0405C9.24336 8.5197 9.63767 8.91362 10.1173 8.91362C10.597 8.91362 10.9913 8.5197 10.9913 8.0405C10.9913 7.56131 10.6011 7.16739 10.1173 7.16739Z" fill="black"/>
<path d="M7.20328 13.4456C6.37402 13.4456 5.69922 12.7714 5.69922 11.943C5.69922 11.1146 6.37402 10.4404 7.20328 10.4404C8.03255 10.4404 8.70735 11.1146 8.70735 11.943C8.70735 12.7714 8.03255 13.4456 7.20328 13.4456ZM7.20328 11.0658C6.71954 11.0658 6.3293 11.4597 6.3293 11.9389C6.3293 12.4181 6.72361 12.8121 7.20328 12.8121C7.68296 12.8121 8.07727 12.4181 8.07727 11.9389C8.07727 11.4597 7.68702 11.0658 7.20328 11.0658Z" fill="black"/>
<path d="M7.20328 18.2669C6.37402 18.2669 5.69922 17.5927 5.69922 16.7643C5.69922 15.9358 6.37402 15.2617 7.20328 15.2617C8.03255 15.2617 8.70735 15.9358 8.70735 16.7643C8.70735 17.5927 8.03255 18.2669 7.20328 18.2669ZM7.20328 15.8912C6.71954 15.8912 6.3293 16.2851 6.3293 16.7643C6.3293 17.2476 6.72361 17.6374 7.20328 17.6374C7.68296 17.6374 8.07727 17.2435 8.07727 16.7643C8.08133 16.281 7.68702 15.8912 7.20328 15.8912Z" fill="black"/>
<path d="M10.1173 22.2298C9.28808 22.2298 8.61328 21.5556 8.61328 20.7272C8.61328 19.8987 9.28808 19.2246 10.1173 19.2246C10.9466 19.2246 11.6214 19.8987 11.6214 20.7272C11.6214 21.5556 10.9466 22.2298 10.1173 22.2298ZM10.1173 19.8541C9.63361 19.8541 9.24336 20.248 9.24336 20.7272C9.24336 21.2104 9.63767 21.6003 10.1173 21.6003C10.597 21.6003 10.9913 21.2064 10.9913 20.7272C10.9913 20.2439 10.6011 19.8541 10.1173 19.8541Z" fill="black"/>
<path d="M19.2267 9.54714C18.3975 9.54714 17.7227 8.87301 17.7227 8.04456C17.7227 7.21612 18.3975 6.54199 19.2267 6.54199C20.056 6.54199 20.7308 7.21612 20.7308 8.04456C20.7308 8.87301 20.0601 9.54714 19.2267 9.54714ZM19.2267 7.16739C18.743 7.16739 18.3527 7.56131 18.3527 8.0405C18.3527 8.5197 18.747 8.91362 19.2267 8.91362C19.7105 8.91362 20.1007 8.5197 20.1007 8.0405C20.1007 7.56131 19.7105 7.16739 19.2267 7.16739Z" fill="black"/>
<path d="M22.1408 13.4456C21.3115 13.4456 20.6367 12.7714 20.6367 11.943C20.6367 11.1146 21.3115 10.4404 22.1408 10.4404C22.9701 10.4404 23.6448 11.1146 23.6448 11.943C23.6448 12.7714 22.9701 13.4456 22.1408 13.4456ZM22.1408 11.0658C21.657 11.0658 21.2668 11.4597 21.2668 11.9389C21.2668 12.4181 21.6611 12.8121 22.1408 12.8121C22.6245 12.8121 23.0148 12.4181 23.0148 11.9389C23.0148 11.4597 22.6245 11.0658 22.1408 11.0658Z" fill="black"/>
<path d="M22.1408 18.2669C21.3115 18.2669 20.6367 17.5927 20.6367 16.7643C20.6367 15.9358 21.3115 15.2617 22.1408 15.2617C22.9701 15.2617 23.6448 15.9358 23.6448 16.7643C23.6489 17.5927 22.9701 18.2669 22.1408 18.2669ZM22.1408 15.8912C21.657 15.8912 21.2668 16.2851 21.2668 16.7643C21.2668 17.2476 21.6611 17.6374 22.1408 17.6374C22.6245 17.6374 23.0148 17.2435 23.0148 16.7643C23.0188 16.281 22.6245 15.8912 22.1408 15.8912Z" fill="black"/>
<path d="M19.2267 22.2298C18.3975 22.2298 17.7227 21.5556 17.7227 20.7272C17.7227 19.8987 18.3975 19.2246 19.2267 19.2246C20.056 19.2246 20.7308 19.8987 20.7308 20.7272C20.7349 21.5556 20.0601 22.2298 19.2267 22.2298ZM19.2267 19.8541C18.743 19.8541 18.3527 20.248 18.3527 20.7272C18.3527 21.2104 18.747 21.6003 19.2267 21.6003C19.7105 21.6003 20.1007 21.2064 20.1007 20.7272C20.1048 20.2439 19.7105 19.8541 19.2267 19.8541Z" fill="black"/>
</svg>
