<svg width="32" height="29" viewBox="0 0 32 29" fill="none" xmlns="http://www.w3.org/2000/svg">
<path d="M19.75 1H12.25C6.9467 1 4.29505 1 2.64752 2.67368C1 4.34735 1 7.04109 1 12.4286V16.2381C1 21.6256 1 24.3193 2.64752 25.993C4.29505 27.6667 6.9467 27.6667 12.25 27.6667H19.75C25.0533 27.6667 27.705 27.6667 29.3525 25.993C31 24.3193 31 21.6256 31 16.2381V12.4286C31 7.04109 31 4.34735 29.3525 2.67368C27.705 1 25.0533 1 19.75 1Z" stroke="#222222"/>
<path d="M7.66797 7.6665H12.668" stroke="#222222" stroke-linecap="round"/>
<path d="M21 19V16.3333C21 15.3905 21 14.9191 21.2929 14.6262C21.5858 14.3333 22.0572 14.3333 23 14.3333H29C29.9428 14.3333 30.4142 14.3333 30.7071 14.6262C31 14.9191 31 15.3905 31 16.3333V19C31 19.9428 31 20.4142 30.7071 20.7071C30.4142 21 29.9428 21 29 21H23C22.0572 21 21.5858 21 21.2929 20.7071C21 20.4142 21 19.9428 21 19Z" stroke="#222222"/>
</svg>
