<svg width="30" height="21" viewBox="0 0 30 21" fill="none" xmlns="http://www.w3.org/2000/svg">
<path d="M24.7351 8.64355L24.5136 9.20288L25.104 9.31833C27.6223 9.81075 29.5 11.9628 29.5 14.5161C29.5 17.4318 27.0535 19.8226 24 19.8226H6.75C3.284 19.8226 0.5 17.1052 0.5 13.7903C0.5 11.1707 2.23344 8.9285 4.67051 8.09883L5.02326 7.97874L5.00901 7.60638C5.00426 7.4823 5 7.36938 5 7.25806C5 3.53945 8.11681 0.5 12 0.5C14.6017 0.5 16.8629 1.86638 18.0721 3.89419L18.3382 4.34038L18.7739 4.05744C19.4072 3.64619 20.1754 3.40323 21 3.40323C23.2238 3.40323 25 5.1453 25 7.25806C25 7.74626 24.9049 8.21468 24.7351 8.64355Z" stroke="black"/>
</svg>
