<svg width="34" height="33" viewBox="0 0 34 33" fill="none" xmlns="http://www.w3.org/2000/svg">
<path d="M29.75 22.0019V10.9959C29.7496 10.6356 29.6519 10.2818 29.4668 9.96959C29.2816 9.65737 29.0155 9.39766 28.6948 9.21631L18.6011 3.51479C18.1147 3.23999 17.5621 3.09521 16.9993 3.09521C16.4366 3.09521 15.8839 3.23999 15.3976 3.51479L5.3052 9.21631C4.98451 9.39766 4.71836 9.65737 4.53323 9.96959C4.3481 10.2818 4.25045 10.6356 4.25 10.9959V22.0019C4.25022 22.3623 4.34776 22.7164 4.5329 23.0289C4.71804 23.3413 4.98432 23.6013 5.3052 23.7827L15.3989 29.4842C15.8854 29.7587 16.438 29.9032 17.0007 29.9032C17.5633 29.9032 18.1159 29.7587 18.6024 29.4842L28.6961 23.7827C29.0168 23.6011 29.2828 23.3411 29.4677 23.0287C29.6526 22.7162 29.7499 22.3622 29.75 22.0019Z" stroke="black" stroke-width="1.00189" stroke-linecap="round" stroke-linejoin="round"/>
<path d="M4.58203 9.92529L17 17.0151L29.418 9.92529" stroke="black" stroke-width="1.00189" stroke-linecap="round" stroke-linejoin="round"/>
<path d="M17 29.9071V17.0146" stroke="black" stroke-width="1.00189" stroke-linecap="round" stroke-linejoin="round"/>
</svg>
