<svg width="31" height="31" viewBox="0 0 31 31" fill="none" xmlns="http://www.w3.org/2000/svg">
<path d="M15.5 12.5923C21.9203 12.5923 27.125 10.4237 27.125 7.74854C27.125 5.07341 21.9203 2.90479 15.5 2.90479C9.07969 2.90479 3.875 5.07341 3.875 7.74854C3.875 10.4237 9.07969 12.5923 15.5 12.5923Z" stroke="black" stroke-width="1.00189" stroke-miterlimit="10" stroke-linecap="round"/>
<path d="M27.125 12.957C27.125 15.632 21.918 17.8008 15.5 17.8008C9.08203 17.8008 3.875 15.632 3.875 12.957" stroke="black" stroke-width="1.00189" stroke-miterlimit="10" stroke-linecap="round"/>
<path d="M27.125 18.1631C27.125 20.838 21.918 23.0068 15.5 23.0068C9.08203 23.0068 3.875 20.838 3.875 18.1631" stroke="black" stroke-width="1.00189" stroke-miterlimit="10" stroke-linecap="round"/>
<path d="M3.875 7.7041V23.2961C3.875 25.9457 9.08203 28.0939 15.5 28.0939C21.918 28.0939 27.125 25.9457 27.125 23.2961V7.7041" stroke="black" stroke-width="1.00189" stroke-miterlimit="10" stroke-linecap="round"/>
</svg>
