<svg width="30" height="18" viewBox="0 0 30 18" fill="none" xmlns="http://www.w3.org/2000/svg">
<path d="M13.4701 13.5184C13.4701 13.5184 11.585 16.6975 7.30849 16.0855C7.30849 16.0855 1.36774 15.5981 1.5347 9.19652C1.5347 9.19652 1.20077 3.58027 8.25104 3.13617C8.25104 3.13617 12.5275 3.13617 14.2457 7.76673C14.2457 7.76673 14.9674 9.94391 15.1882 11.0596C15.409 12.1752 17.2403 15.9609 21.5168 16.1613C21.5168 16.1613 27.5114 16.9195 28.4539 9.88975C28.4539 9.88975 28.8417 4.02979 22.734 3.13617C22.734 3.13617 19.5724 2.74081 16.9602 5.42708" stroke="black" stroke-miterlimit="10" stroke-linecap="round" stroke-linejoin="round"/>
<path d="M17.1339 1.63037L16.7461 5.42689L20.1877 6.15261" stroke="black" stroke-width="1.5" stroke-miterlimit="10" stroke-linecap="round" stroke-linejoin="round"/>
</svg>
