<svg width="26" height="26" viewBox="0 0 26 26" fill="none" xmlns="http://www.w3.org/2000/svg">
<path d="M1 9.04697C1 8.20689 1 7.78685 1.16349 7.46599C1.3073 7.18374 1.53677 6.95427 1.81901 6.81046C2.13988 6.64697 2.55992 6.64697 3.4 6.64697H8.28391C8.71468 6.64697 8.93006 6.64697 9.12021 6.71256C9.28837 6.77057 9.44153 6.86523 9.5686 6.98969C9.7123 7.13044 9.80862 7.32309 10.0012 7.70839L11.7635 11.2332C11.9561 11.6185 12.0524 11.8111 12.1961 11.9519C12.3232 12.0763 12.4763 12.171 12.6445 12.229C12.8346 12.2946 13.05 12.2946 13.4808 12.2946H22.6C23.4401 12.2946 23.8601 12.2946 24.181 12.4581C24.4632 12.6019 24.6927 12.8314 24.8365 13.1136C25 13.4345 25 13.8545 25 14.6946V22.6005C25 23.4406 25 23.8606 24.8365 24.1815C24.6927 24.4637 24.4632 24.6932 24.181 24.837C23.8601 25.0005 23.4401 25.0005 22.6 25.0005H3.4C2.55992 25.0005 2.13988 25.0005 1.81901 24.837C1.53677 24.6932 1.3073 24.4637 1.16349 24.1815C1 23.8606 1 23.4406 1 22.6005V9.04697Z" stroke="#222222"/>
<path d="M20.7677 11.5887V5.89852C20.7677 5.65393 20.7677 5.53164 20.7401 5.41655C20.7156 5.31451 20.6752 5.21697 20.6203 5.1275C20.5585 5.02658 20.472 4.94011 20.2991 4.76715L17.001 1.46912C16.8281 1.29617 16.7416 1.20969 16.6407 1.14785C16.5512 1.09302 16.4537 1.05262 16.3516 1.02812C16.2365 1.00049 16.1142 1.00049 15.8697 1.00049H7.63828C6.7982 1.00049 6.37816 1.00049 6.0573 1.16398C5.77505 1.30779 5.54558 1.53726 5.40177 1.8195C5.23828 2.14037 5.23828 2.56041 5.23828 3.40049V7.35343" stroke="#222222"/>
<path d="M15.1211 0.999914L15.1211 5.04697C15.1211 5.60703 15.1211 5.88705 15.2301 6.10096C15.326 6.28913 15.4789 6.44211 15.6671 6.53798C15.881 6.64697 16.161 6.64697 16.7211 6.64697L20.7682 6.64697" stroke="#222222"/>
</svg>
