<svg width="32" height="29" viewBox="0 0 32 29" fill="none" xmlns="http://www.w3.org/2000/svg">
<circle cx="16.2113" cy="6.14486" r="5.64486" stroke="#222222" stroke-linecap="round"/>
<path d="M19.3769 2.81036C19.8338 2.0189 20.5152 1.38073 21.3348 0.976522C22.1545 0.572318 23.0756 0.420244 23.9817 0.539531C24.8877 0.658818 25.7381 1.04411 26.4252 1.64668C27.1123 2.24925 27.6053 3.04203 27.8418 3.92479C28.0783 4.80754 28.0478 5.7406 27.754 6.60599C27.4603 7.47139 26.9165 8.23023 26.1914 8.78657C25.4664 9.34292 24.5927 9.67176 23.6807 9.73154C22.7688 9.79131 21.8596 9.57932 21.0682 9.12237" stroke="#222222"/>
<path d="M13.045 2.81036C12.5881 2.0189 11.9067 1.38073 11.087 0.976522C10.2674 0.572318 9.3463 0.420244 8.44022 0.539531C7.53415 0.658818 6.6838 1.04411 5.9967 1.64668C5.3096 2.24925 4.81661 3.04203 4.58008 3.92479C4.34355 4.80754 4.37409 5.7406 4.66785 6.60599C4.96161 7.47139 5.5054 8.23023 6.23044 8.78657C6.95547 9.34292 7.82921 9.67176 8.74114 9.73154C9.65307 9.79131 10.5623 9.57932 11.3537 9.12237" stroke="#222222"/>
<path d="M16.2109 15.3623C25.5106 15.3623 27.1334 23.7371 27.4166 26.6599C27.4699 27.2096 27.0287 27.652 26.4765 27.652H5.94531C5.39303 27.652 4.95192 27.2096 5.00518 26.6599C5.28836 23.7371 6.91118 15.3623 16.2109 15.3623Z" stroke="#222222" stroke-linecap="round"/>
<path d="M31.4049 22.4687L31.8962 22.376V22.376L31.4049 22.4687ZM18.4375 15.5387L18.0683 15.2016L17.4478 15.8811L18.3555 16.0319L18.4375 15.5387ZM26.8236 23.5559L26.3433 23.6948L26.4478 24.0559H26.8236V23.5559ZM23.3798 13.8145C26.01 13.8145 27.7539 15.2992 28.9269 17.1687C30.1072 19.0498 30.6692 21.2667 30.9136 22.5614L31.8962 22.376C31.643 21.0343 31.0521 18.6742 29.774 16.6372C28.4887 14.5887 26.4688 12.8145 23.3798 12.8145V13.8145ZM18.8067 15.8758C19.9131 14.6641 21.3864 13.8145 23.3798 13.8145V12.8145C21.0584 12.8145 19.3299 13.8198 18.0683 15.2016L18.8067 15.8758ZM18.3555 16.0319C23.3556 16.8629 25.4531 20.6178 26.3433 23.6948L27.3039 23.4169C26.3646 20.1703 24.0689 15.9677 18.5195 15.0455L18.3555 16.0319ZM30.4679 23.0559H26.8236V24.0559H30.4679V23.0559ZM30.9136 22.5614C30.9602 22.8085 30.7737 23.0559 30.4679 23.0559V24.0559C31.3454 24.0559 32.069 23.2916 31.8962 22.376L30.9136 22.5614Z" fill="#222222"/>
<path d="M13.9838 15.5387L14.0658 16.0319L14.9735 15.8811L14.3531 15.2016L13.9838 15.5387ZM1.0164 22.4687L1.50773 22.5614L1.0164 22.4687ZM5.59773 23.5559V24.0559H5.97358L6.07803 23.6948L5.59773 23.5559ZM9.04153 13.8145C11.035 13.8145 12.5083 14.6641 13.6146 15.8758L14.3531 15.2016C13.0914 13.8198 11.3629 12.8145 9.04153 12.8145V13.8145ZM1.50773 22.5614C1.75207 21.2667 2.31411 19.0498 3.49439 17.1687C4.66741 15.2992 6.41133 13.8145 9.04153 13.8145V12.8145C5.95256 12.8145 3.93269 14.5887 2.64733 16.6372C1.36922 18.6742 0.778279 21.0343 0.525075 22.376L1.50773 22.5614ZM1.95337 23.0559C1.64757 23.0559 1.4611 22.8085 1.50773 22.5614L0.525075 22.376C0.352263 23.2916 1.07593 24.0559 1.95337 24.0559V23.0559ZM5.59773 23.0559H1.95337V24.0559H5.59773V23.0559ZM6.07803 23.6948C6.96825 20.6178 9.06575 16.8629 14.0658 16.0319L13.9019 15.0455C8.35241 15.9677 6.05671 20.1703 5.11743 23.4169L6.07803 23.6948Z" fill="#222222"/>
</svg>
