<svg width="32" height="31" viewBox="0 0 32 31" fill="none" xmlns="http://www.w3.org/2000/svg">
<path d="M4.96698 26.5899C4.28394 25.9188 3.74211 25.1219 3.37244 24.2449C3.00277 23.3679 2.8125 22.4278 2.8125 21.4785C2.8125 20.5292 3.00277 19.5892 3.37244 18.7122C3.74211 17.8351 4.28394 17.0383 4.96698 16.3671L7.56709 13.8169L17.9676 24.0342L15.3674 26.5899C14.6846 27.2613 13.8739 27.7939 12.9816 28.1572C12.0894 28.5206 11.133 28.7076 10.1672 28.7076C9.20139 28.7076 8.24504 28.5206 7.35277 28.1572C6.4605 27.7939 5.6498 27.2613 4.96698 26.5899Z" stroke="black" stroke-linejoin="round"/>
<path d="M9.51953 15.7278L14.0697 11.2554" stroke="black" stroke-linejoin="round"/>
<path d="M1 30.4884L4.96684 26.5894" stroke="black" stroke-linejoin="round"/>
<path d="M27.038 4.89961C27.721 5.57077 28.2629 6.36762 28.6325 7.24465C29.0022 8.12167 29.1925 9.06169 29.1925 10.011C29.1925 10.9603 29.0022 11.9003 28.6325 12.7774C28.2629 13.6544 27.721 14.4512 27.038 15.1224L24.4379 17.6781L14.043 7.45531L16.6431 4.89961C18.0219 3.54538 19.8913 2.78467 21.8405 2.78467C23.7897 2.78467 25.6592 3.54538 27.038 4.89961Z" stroke="black" stroke-linejoin="round"/>
<path d="M30.9981 1L27.0312 4.89908" stroke="black" stroke-linejoin="round"/>
<path d="M16.0195 22.1165L20.5697 17.644" stroke="black" stroke-linejoin="round"/>
</svg>
