<svg width="30" height="26" viewBox="0 0 30 26" fill="none" xmlns="http://www.w3.org/2000/svg">
<path d="M15.1578 15.7761C15.0853 15.7761 15.0127 15.7603 14.9505 15.7235L0.259108 8.26853C0.0984611 8.18967 0 8.0267 0 7.84269C0 7.66394 0.103643 7.50096 0.259108 7.4221L14.9505 0.0512594C15.0801 -0.0170865 15.2356 -0.0170865 15.3703 0.0512594L29.7456 7.4221C29.9011 7.50096 29.9995 7.66394 29.9995 7.84269C29.9995 8.02144 29.9011 8.18442 29.7456 8.26328L15.3703 15.7235C15.3081 15.755 15.2304 15.7761 15.1578 15.7761ZM1.51319 7.84795L15.1578 14.7667L28.5071 7.84795L15.1578 1.00284L1.51319 7.84795Z" fill="black"/>
<path d="M15.0042 20.5807C14.9317 20.5807 14.8643 20.5649 14.797 20.5333L0.261001 13.2414C0.0278042 13.1257 -0.0654752 12.8418 0.0485324 12.6052C0.16254 12.3739 0.442377 12.274 0.675574 12.3897L14.9991 19.5765L29.0116 12.3897C29.2396 12.274 29.5247 12.3634 29.6387 12.6C29.7527 12.8313 29.6646 13.1204 29.4314 13.2361L15.2167 20.5281C15.1493 20.5649 15.0768 20.5807 15.0042 20.5807Z" fill="black"/>
<path d="M15.0042 25.5489C14.9317 25.5489 14.8643 25.5332 14.797 25.5016L0.261001 18.2096C0.0278042 18.094 -0.0654752 17.8101 0.0485324 17.5735C0.16254 17.3422 0.442377 17.2423 0.675574 17.3579L14.9991 24.5448L29.0116 17.3579C29.2396 17.2423 29.5247 17.3316 29.6387 17.5682C29.7527 17.7996 29.6646 18.0887 29.4314 18.2044L15.2167 25.4964C15.1493 25.5332 15.0768 25.5489 15.0042 25.5489Z" fill="black"/>
</svg>
